<?xml version="1.0" encoding="UTF-8"?>
<svg width="36px" height="36px" viewBox="0 0 36 36" version="1.1" xmlns="http://www.w3.org/2000/svg" xmlns:xlink="http://www.w3.org/1999/xlink">
    <g stroke="none" stroke-width="1" fill="none" fill-rule="evenodd">
        <g transform="translate(-584.000000, -3647.000000)">
            <g transform="translate(584.000000, 3647.000000)">
                <path d="M18,36 C27.9391304,36 36,27.9391304 36,18 C36,8.06086957 27.9391304,0 18,0 C8.06086957,0 0,8.0573913 0,18 C0,27.9417391 8.06086957,36 18,36 Z" id="Path" fill="#3C5997"></path>
                <path d="M15.7417391,12.3217391 C15.7417391,9.44782609 17.7434783,7.10695652 20.4895652,7.10695652 L23.8113043,7.10695652 L23.8113043,10.7330435 L20.4913043,10.7330435 C20.0982609,10.7330435 19.66,11.2478261 19.66,11.9382609 L19.66,14.3278261 L23.8104348,14.3278261 L23.8104348,17.733913 L19.6608696,17.733913 L19.6608696,27.9686957 L15.7426087,27.9686957 L15.7426087,17.7347826 L12.1895652,17.7347826 L12.1895652,14.326087 L15.7426087,14.326087 L15.7426087,12.3217391 L15.7417391,12.3217391 Z" fill="#FFFFFF"></path>
            </g>
        </g>
    </g>
</svg>