<?xml version="1.0" encoding="UTF-8"?>
<svg width="36px" height="36px" viewBox="0 0 36 36" version="1.1" xmlns="http://www.w3.org/2000/svg" xmlns:xlink="http://www.w3.org/1999/xlink">
    <g id="Home-page-" stroke="none" stroke-width="1" fill="none" fill-rule="evenodd">
        <g id="Styleguide" transform="translate(-676.000000, -3647.000000)">
            <g id="Icon_youtube" transform="translate(676.000000, 3647.000000)">
                <path d="M18,36 C27.9391304,36 36,27.9391304 36,18 C36,8.06086957 27.9391304,0 18,0 C8.06086957,0 0,8.0573913 0,18 C0,27.9417391 8.06086957,36 18,36 Z" id="Path" fill="#F61C0D"></path>
                <path d="M23.2616307,12 L12.7383693,12 C10.6737231,12 9,13.7082485 9,15.8154842 L9,21.1845158 C9,23.2917515 10.6737231,25 12.7383693,25 L23.2616307,25 C25.3262769,25 27,23.2917515 27,21.1845158 L27,15.8154842 C27,13.7082485 25.3262769,12 23.2616307,12 Z M20.8941714,18.7403124 L16.2657852,20.9813937 C16.1424571,21.0411081 16,20.9498218 16,20.8111217 L16,16.18888 C16,16.0482044 16.1462021,15.9570299 16.2697873,16.020621 L20.8981734,18.4017814 C21.035784,18.4725665 21.0333975,18.6729193 20.8941714,18.7403124 Z" id="Shape" fill="#FFFFFF" fill-rule="nonzero"></path>
            </g>
        </g>
    </g>
</svg>