<?xml version="1.0" encoding="UTF-8"?>
<svg width="36px" height="36px" viewBox="0 0 36 36" version="1.1" xmlns="http://www.w3.org/2000/svg" xmlns:xlink="http://www.w3.org/1999/xlink">
    <g stroke="none" stroke-width="1" fill="none" fill-rule="evenodd">
        <g transform="translate(-630.000000, -3647.000000)" fill-rule="nonzero">
            <g transform="translate(630.000000, 3647.000000)">
                <path d="M17.9999382,0 C27.9416173,0 36,8.05949492 36,18.0000618 C36,27.9417408 27.9416173,36 17.9999382,36 C8.05825916,36 0,27.9416173 0,18.0000618 C0,8.05949492 8.05838274,0 17.9999382,0 Z" id="Path" fill="#26A6D1"></path>
                <path d="M29.2533752,12.1263769 C28.4670619,12.466087 27.6209379,12.6944552 26.7334159,12.7980118 C27.6402157,12.2703428 28.3354536,11.4367 28.6628061,10.4411727 C27.8145813,10.9305332 26.8762697,11.2849488 25.8761701,11.4750085 C25.0762635,10.6481623 23.9366468,10.1317387 22.6744428,10.1317387 C20.2534678,10.1317387 18.2892293,12.0364137 18.2892293,14.3875683 C18.2892293,14.7217174 18.3275379,15.0468456 18.4027956,15.3585039 C14.7578016,15.1808018 11.5245624,13.4853408 9.36235536,10.9102668 C8.98433676,11.5391444 8.76832613,12.2692306 8.76832613,13.049983 C8.76832613,14.5259732 9.54228183,15.8309345 10.7190949,16.5926562 C9.99914183,16.5701654 9.32404684,16.3799821 8.73125337,16.0594263 L8.73125337,16.1134289 C8.73125337,18.1766517 10.2432042,19.8968279 12.2502,20.2883162 C11.8823146,20.3850762 11.4952749,20.4379666 11.0947655,20.4379666 C10.8123947,20.4379666 10.5379326,20.4121393 10.2701437,20.3614732 C10.8280888,22.053474 12.4481685,23.2841662 14.3685376,23.3180259 C12.86672,24.4609792 10.9755148,25.1405229 8.92020088,25.1405229 C8.56578527,25.1405229 8.21705416,25.1202565 7.87277177,25.0809594 C9.81563166,26.2891607 12.1197038,26.9945318 14.598018,26.9945318 C22.6665339,26.9945318 27.0788105,20.5055626 27.0788105,14.8805124 L27.0664529,14.3292405 C27.9213508,13.7306389 28.6650304,12.9813984 29.2533752,12.1263769 Z" fill="#FFFFFF"></path>
            </g>
        </g>
    </g>
</svg>