<svg width="18" height="26" xmlns="http://www.w3.org/2000/svg"><path d="M9.454 0a4.698 4.698 0 0 1 4.692 4.692v1.534c1.123.297 1.945 1.219 1.945 2.309l1.326 14.533c0 1.33-1.221 2.41-2.721 2.41H2.72c-1.5 0-2.721-1.08-2.721-2.41L1.325 8.535c0-1.21 1.013-2.211 2.326-2.382a4.674 4.674 0 0 1 1.428-3.14A4.695 4.695 0 0 1 9.454 0Zm2.904 7.089H4.302v1.133c.432.135.747.534.745 1.009a1.055 1.055 0 0 1-1.054 1.047 1.051 1.051 0 0 1-.354-2.042v-1.1c-.703.161-1.225.726-1.225 1.399L1.088 23.068c0 .798.733 1.447 1.633 1.447h11.975c.9 0 1.633-.65 1.633-1.447L15.002 8.535c0-.798-.732-1.446-1.632-1.446h-.348v1.165c.38.162.646.54.644.977a1.055 1.055 0 0 1-1.054 1.047 1.05 1.05 0 0 1-.75-.313 1.053 1.053 0 0 1 .495-1.76V7.09ZM9.06 13.81c.457.028.707.417.568.915l-.664 2.39 4.353-1.874c.222-.088.418-.013.483.09.094.152.065.393-.198.544l-5.877 3.63a.884.884 0 0 1-.466.129c-.444 0-.711-.386-.592-.84l.763-2.75s-3.386 1.24-3.55 1.284c-.191.052-.328-.017-.372-.14-.046-.127-.002-.283.203-.41.153-.107 4.918-2.859 4.918-2.859a.865.865 0 0 1 .43-.109ZM3.994 9.033a.192.192 0 0 0-.193.19.192.192 0 0 0 .19.193.192.192 0 0 0 .003-.383Zm8.619 0a.192.192 0 0 0-.137.326.188.188 0 0 0 .135.057l.051-.007a.192.192 0 0 0 .141-.183.192.192 0 0 0-.19-.193ZM9.454.664a4.022 4.022 0 0 0-3.118 1.483 4.656 4.656 0 0 1 1.994-.452 4.694 4.694 0 0 1 4.68 4.429h.36c.037 0 .074.004.112.005V4.692A4.032 4.032 0 0 0 9.454.664ZM4.772 4.506a4.002 4.002 0 0 0-.456 1.618h.446V4.692c0-.063.007-.124.01-.186ZM8.33 2.359a4.006 4.006 0 0 0-2.686 1.035c-.14.408-.22.844-.22 1.298v1.432h6.92a4.03 4.03 0 0 0-4.014-3.765Z" fill="#1CBB27" fill-rule="evenodd"/></svg>