<svg width="19" height="28" xmlns="http://www.w3.org/2000/svg"><g fill="none" fill-rule="evenodd"><path d="M8.36 10.593a.548.548 0 0 0-.135.02l-1.743.48a.554.554 0 0 0-.2.104l-2.58 2.09a.588.588 0 0 0-.118.776l1.174 1.787a.55.55 0 0 0 .78.151l.53-.374v5.39c0 .318.25.576.56.576h5.72c.308 0 .559-.258.559-.577V15.63l.54.384a.55.55 0 0 0 .784-.155l1.163-1.799a.588.588 0 0 0-.12-.773l-2.58-2.089a.554.554 0 0 0-.202-.104l-1.743-.48c-.436-.041-.538.22-.733.283-.13.04-.33.07-.53.07-.198 0-.398-.03-.528-.07-.228-.028-.268-.302-.597-.303Zm-.145 1.215c.135.09.28.148.421.192.271.084.56.118.85.118.291 0 .58-.034.851-.118.142-.044.287-.102.422-.191l1.333.367 2.083 1.688-.56.867-.95-.674c-.37-.263-.877.01-.877.474v5.91H7.187v-5.91c0-.464-.505-.737-.877-.475l-.941.667-.566-.862 2.08-1.685 1.332-.368Z" fill="#E12127" fill-rule="nonzero"/><path stroke="#595A5B" stroke-linecap="round" stroke-linejoin="round" d="M1 10.861V4.365h17.192v22.783H1V12.306"/><path stroke="#595A5B" stroke-linejoin="round" d="M1 4.365 17.089 1v3.365"/></g></svg>