<svg width="16" height="27" xmlns="http://www.w3.org/2000/svg"><g fill="none" fill-rule="evenodd"><path d="M9.57 9.94c-.964 1.021-2.694 1.117-3.855.215-.238-.186-.592-.166-.787.043-.2.209-.165.528.074.713.817.636 1.836.92 2.82.865.984-.054 1.933-.448 2.612-1.167.196-.208.163-.527-.075-.712-.239-.185-.591-.166-.788.043Z" fill="#E21F26"/><path d="M2.112 6.767a5.972 5.972 0 0 1 6.32-5.588 5.97 5.97 0 0 1 5.587 6.319A5.971 5.971 0 0 1 7.7 13.086a6.008 6.008 0 0 1-1.261-.217.628.628 0 0 0-.126-.04c-2.57-.792-4.373-3.262-4.2-6.062Zm8.421 7.225c3.259 1.777 4.723 7.383 3.8 11.09l-13.093-.14c-.188-1.776.185-5.462.827-6.969.704-1.655 2.114-3.04 4.19-4.123a7.342 7.342 0 0 0 4.006-.111c.06.101.15.187.27.253Zm1.166-.725a7.13 7.13 0 0 0 3.486-5.697c.24-3.925-2.757-7.316-6.682-7.557C4.578-.227 1.189 2.77.947 6.695a7.142 7.142 0 0 0 3.669 6.679c-1.692 1.08-2.906 2.424-3.618 4.004-.825 1.833-1.249 6.31-.84 8.202.066.31.342.547.658.568l13.786.209h.003a.732.732 0 0 0 .722-.485c1.299-3.92-.051-10.205-3.628-12.605Z" fill="#5F5E56"/></g></svg>